<?xml version="1.0" encoding="utf-8"?>
<!-- Generator: Adobe Illustrator 16.0.0, SVG Export Plug-In . SVG Version: 6.00 Build 0)  -->
<!DOCTYPE svg PUBLIC "-//W3C//DTD SVG 1.1//EN" "http://www.w3.org/Graphics/SVG/1.1/DTD/svg11.dtd">
<svg version="1.1" id="圖層_1" xmlns="http://www.w3.org/2000/svg" xmlns:xlink="http://www.w3.org/1999/xlink" x="0px" y="0px"
	 width="907.086px" height="715.024px" viewBox="0 0 907.086 715.024" enable-background="new 0 0 907.086 715.024"
	 xml:space="preserve">
<g>
	<g>
		<path fill="#3E3A39" d="M138.167,308.196H168.8v11.439h-60.25v-11.439h16.955v-99.261l-16.955-2.041v-9.807
			c7.147,0.816,14.092,2.455,21.24,2.455c11.643,0,23.286-2.455,34.93-2.455c19.403,0,35.944,9.194,35.944,32.067
			c0,23.082-15.316,39.01-45.14,38.398l-17.356-0.408L138.167,308.196L138.167,308.196z M138.167,255.706l16.949,0.408
			c21.856,0.612,32.271-9.597,32.271-26.755c0-15.316-10.821-22.873-25.123-22.873c-8.168,0-16.133,1.632-24.097,2.449V255.706z"/>
		<path fill="#3E3A39" d="M284.653,308.196h34.107v11.439h-84.965v-11.439h38.195V203.419c-6.944,1.225-13.889,1.842-21.042,2.046
			l-11.842,0.408l-2.046-11.235l13.072-0.204c6.332,0,18.383-0.408,22.878-5.72c1.633-1.836,2.857-3.066,5.516-3.066
			c6.332,0,6.127,6.127,6.127,10.623L284.653,308.196L284.653,308.196z"/>
		<path fill="#3E3A39" d="M417.655,313.508c-12.255,5.107-24.097,8.576-37.168,8.576c-14.914,0-28.598-6.944-28.598-23.484
			c0-16.75,12.868-22.674,26.959-25.939c12.664-3.067,25.123-3.679,38.807-4.087v-5.313c0-11.637,1.842-19.199-13.684-19.199
			c-10.208,0-20.423,2.251-29,7.97v12.045h-12.664v-19.602c11.847-7.154,26.551-11.847,39.827-11.847
			c20.832,0,28.184,5.516,28.184,25.531v50.036h16.955v11.439h-29.618V313.508z M417.655,279.4
			c-11.637,0.408-24.301,1.428-35.332,4.081c-8.372,2.046-17.158,4.903-17.158,15.118c0,9.597,7.761,12.051,15.935,12.051
			c12.664,0,25.123-4.699,36.556-10.011V279.4z"/>
		<path fill="#3E3A39" d="M495.722,308.196h13.889v11.439h-40.438v-11.439h13.888v-61.679l-14.914,2.041l-1.836-10.413
			c6.535-0.414,13.275-1.23,17.975-5.516c1.634-1.842,2.856-3.475,5.517-3.475c5.923,0,5.923,5.719,5.923,10.214v3.061
			c10.413-4.903,20.628-9.801,32.476-9.801c9.808,0,20.418,3.673,25.117,12.868c3.673,7.148,3.475,16.541,3.475,24.505v38.194
			h13.889v11.439H530.24v-11.439h13.889V270.41c0-12.454,0.815-26.348-15.929-26.348c-11.648,0-22.878,5.516-32.476,11.439v52.695
			H495.722z"/>
		<path fill="#3E3A39" d="M611.162,282.257c1.226,17.771,15.112,28.394,36.966,28.394c12.873,0,25.115-4.087,37.779-9.603
			l3.686,10.418c-12.873,6.332-28.802,10.617-43.099,10.617c-36.964,0-48.602-24.505-48.602-42.888
			c0-26.143,19.193-46.567,45.547-46.567c25.116,0,41.651,15.725,41.651,41.051c0,2.857-0.198,5.72-0.816,8.577L611.162,282.257
			L611.162,282.257z M672.23,270.824c0-15.934-13.282-26.761-28.592-26.761c-15.521,0-29.42,11.439-32.477,26.761H672.23z"/>
		<path fill="#3E3A39" d="M755.405,235.078h47.587v11.439h-47.587v40.847c0,10.623-1.235,23.287,13.062,23.287
			c11.029,0,24.93-3.475,35.751-6.74l4.081,10.821c-12.453,3.475-28.383,7.352-41.045,7.352c-15.322,0-24.512-8.984-24.512-29
			v-46.567h-29.407v-11.439h29.407V212.41h12.663V235.078z"/>
		<path fill="#3E3A39" d="M211.693,523.954h-22.464l-37.174-55.762h-19.812v44.32h19.402v11.439h-48.816v-11.439h16.75v-98.239
			l-16.75-2.041v-10.833c6.332,1.436,11.847,2.461,18.791,2.461c10.419,0,21.035-2.461,31.455-2.461
			c20.22,0,39.011,9.2,39.011,31.658c0,17.363-10.418,28.395-26.551,33.094l31.455,46.361h14.703L211.693,523.954L211.693,523.954z
			 M132.243,457.161l10.616,0.211c25.939,0.408,35.95-9.609,35.95-22.879c0-15.521-11.234-21.654-25.531-21.654
			c-6.739,0-13.684,0.619-21.035,1.436V457.161z"/>
		<path fill="#3E3A39" d="M232.163,481.672c0-25.328,19.198-44.73,44.521-44.73c25.327,0,44.526,19.402,44.526,44.73
			c0,25.115-19.199,44.729-44.526,44.729C251.362,526.401,232.163,506.788,232.163,481.672z M307.934,481.672
			c0-18.18-12.459-33.291-31.25-33.291c-18.792,0-31.245,15.111-31.245,33.291c0,17.969,12.453,33.291,31.245,33.291
			C295.475,514.963,307.934,499.641,307.934,481.672z"/>
		<path fill="#3E3A39" d="M353.731,481.672c0-25.328,19.193-44.73,44.521-44.73c25.326,0,44.525,19.402,44.525,44.73
			c0,25.115-19.199,44.729-44.525,44.729C372.924,526.401,353.731,506.788,353.731,481.672z M429.502,481.672
			c0-18.18-12.459-33.291-31.25-33.291c-18.785,0-31.245,15.111-31.245,33.291c0,17.969,12.459,33.291,31.245,33.291
			C417.041,514.963,429.502,499.641,429.502,481.672z"/>
		<path fill="#3E3A39" d="M489.799,512.514h8.372v11.439H464.88v-11.439h12.255v-61.686l-14.908,2.041l-1.842-10.412
			c6.535-0.408,13.274-1.225,17.975-5.516c1.633-1.844,2.856-3.477,5.517-3.477c5.924,0,5.924,5.727,5.924,10.215
			c5.72-3.674,11.847-6.738,18.797-6.738c6.319,0,12.243,2.855,15.311,8.371c6.739-5.107,14.914-8.371,23.496-8.371
			c7.952,0,15.312,4.291,17.352,12.254c1.423,5.107,1.423,10.623,1.423,15.93v47.389h12.267v11.439H545.14v-11.439h8.384v-47.389
			c0-6.123,1.225-16.744-7.567-16.744c-6.319,0-13.27,4.488-17.956,8.582v55.551h8.371v11.439h-29.42v-11.439h8.385v-47.389
			c0-5.307,0.605-16.744-7.159-16.744c-6.74,0-13.271,4.699-18.377,8.582L489.799,512.514L489.799,512.514z"/>
	</g>
	<path fill="#3E3A39" d="M907.086,715.024H0V0h907.086V715.024z M11.94,703.084h883.206V11.94H11.94V703.084z"/>
</g>
</svg>
